<svg width="65" height="59" viewBox="0 0 65 59" fill="none" xmlns="http://www.w3.org/2000/svg">
<path d="M24.9625 18.4263V8.40271C24.9625 6.70529 25.6365 5.07735 26.8364 3.87672C28.0363 2.6761 29.6639 2.00107 31.3613 2.00003H33.6071C34.4496 1.99744 35.2843 2.16114 36.0634 2.48174C36.8425 2.80234 37.5506 3.27355 38.1472 3.86835C38.7439 4.46315 39.2173 5.16986 39.5403 5.94795C39.8632 6.72605 40.0295 7.56024 40.0295 8.40271V18.4263C40.0295 19.2101 39.7182 19.9617 39.164 20.5159C38.6098 21.0701 37.8582 21.3814 37.0744 21.3814H27.9176C27.5295 21.3814 27.1453 21.305 26.7867 21.1565C26.4282 21.008 26.1025 20.7903 25.828 20.5159C25.5536 20.2415 25.336 19.9157 25.1875 19.5572C25.039 19.1987 24.9625 18.8144 24.9625 18.4263V18.4263Z" stroke="#1899F1" stroke-width="4" stroke-linecap="round" stroke-linejoin="round"/>
<path d="M32.5434 7.45313C33.0477 7.45235 33.541 7.6012 33.9607 7.88084C34.3805 8.16048 34.7078 8.55834 34.9014 9.02409C35.0949 9.48983 35.146 10.0025 35.048 10.4973C34.9501 10.9921 34.7076 11.4467 34.3513 11.8036C33.9949 12.1605 33.5407 12.4037 33.0461 12.5024C32.5515 12.601 32.0387 12.5508 31.5727 12.358C31.1066 12.1651 30.7082 11.8384 30.4279 11.4191C30.1477 10.9998 29.998 10.5067 29.998 10.0024C29.998 9.32696 30.2661 8.67914 30.7433 8.20118C31.2205 7.72321 31.8679 7.45417 32.5434 7.45313Z" fill="#1899F1"/>
<path d="M43.8751 40.5067H34.6158" stroke="#1899F1" stroke-width="4" stroke-linecap="round" stroke-linejoin="round"/>
<path d="M53.1383 31.5863H34.6158" stroke="#1899F1" stroke-width="4" stroke-linecap="round" stroke-linejoin="round"/>
<path d="M27.2282 31.3814C25.2581 29.762 22.3385 30.0536 20.53 31.8542L19.3479 33.0362C19.343 33.0404 19.3367 33.0427 19.3302 33.0427C19.3237 33.0427 19.3174 33.0404 19.3125 33.0362L18.1304 31.8542C16.3298 30.0536 13.4023 29.762 11.4322 31.3814C10.9055 31.8133 10.4751 32.3508 10.1688 32.9592C9.8624 33.5677 9.68686 34.2335 9.65345 34.9139C9.62005 35.5942 9.72951 36.2741 9.97481 36.9096C10.2201 37.545 10.5958 38.1221 11.0776 38.6036L12.4488 39.9472L18.0122 45.5185C18.1862 45.6936 18.3931 45.8326 18.6209 45.9274C18.8488 46.0223 19.0932 46.0711 19.34 46.0711C19.5869 46.0711 19.8313 46.0223 20.0592 45.9274C20.287 45.8326 20.4939 45.6936 20.6679 45.5185L26.2392 39.9472L27.5867 38.6036C28.0678 38.1216 28.4427 37.5442 28.6873 36.9086C28.9319 36.273 29.0408 35.5933 29.0071 34.9131C28.9733 34.2329 28.7976 33.5673 28.4912 32.959C28.1848 32.3508 27.7546 31.8134 27.2282 31.3814V31.3814Z" stroke="#1899F1" stroke-width="4" stroke-linecap="round" stroke-linejoin="round"/>
<path d="M24.9626 14.4863H9.3952C7.5668 14.4873 5.81359 15.2141 4.52072 16.507C3.22784 17.7998 2.50105 19.5531 2.50001 21.3815V49.5651C2.49846 50.4715 2.67566 51.3694 3.02148 52.2074C3.3673 53.0453 3.87495 53.8068 4.51538 54.4483C5.15581 55.0899 5.91646 55.5988 6.75379 55.9461C7.59113 56.2933 8.48872 56.4721 9.3952 56.4721H55.6048C56.5103 56.4721 57.4069 56.2937 58.2435 55.9472C59.08 55.6007 59.8402 55.0928 60.4804 54.4525C61.1207 53.8122 61.6286 53.0521 61.9751 52.2156C62.3217 51.379 62.5 50.4824 62.5 49.5769V21.3815C62.499 19.5531 61.7722 17.7998 60.4793 16.507C59.1864 15.2141 57.4332 14.4873 55.6048 14.4863H40.0296" stroke="#1899F1" stroke-width="4" stroke-linecap="round" stroke-linejoin="round"/>
</svg>
