<svg width="65" height="59" viewBox="0 0 65 59" fill="none" xmlns="http://www.w3.org/2000/svg">
<path d="M39.2869 45.9396L40.542 55.2485C40.5639 55.3883 40.5556 55.5312 40.5177 55.6676C40.4798 55.804 40.4131 55.9307 40.3222 56.0392C40.2312 56.1476 40.1181 56.2354 39.9904 56.2965C39.8628 56.3576 39.7235 56.3906 39.5819 56.3934H25.418C25.2766 56.3921 25.1372 56.3605 25.009 56.3008C24.8809 56.2411 24.7669 56.1547 24.6749 56.0474C24.5829 55.9401 24.5149 55.8144 24.4754 55.6786C24.436 55.5428 24.426 55.4002 24.4462 55.2603L25.7013 45.9514L39.2869 45.9396Z" stroke="#1899F1" stroke-width="4" stroke-miterlimit="10"/>
<path d="M2.5 35.6118H62.5" stroke="#1899F1" stroke-width="4" stroke-miterlimit="10"/>
<path d="M30.7374 40.7738C30.7374 40.4252 30.8408 40.0844 31.0345 39.7945C31.2282 39.5047 31.5034 39.2788 31.8255 39.1453C32.1476 39.0119 32.502 38.977 32.8439 39.045C33.1858 39.113 33.4999 39.2809 33.7464 39.5274C33.9929 39.7739 34.1608 40.088 34.2288 40.4299C34.2968 40.7718 34.2619 41.1262 34.1285 41.4483C33.9951 41.7704 33.7692 42.0457 33.4793 42.2394C33.1894 42.433 32.8487 42.5364 32.5001 42.5364C32.0329 42.5354 31.5852 42.3493 31.2548 42.019C30.9245 41.6887 30.7385 41.241 30.7374 40.7738Z" fill="#1899F1"/>
<path d="M55.5282 2H9.38525C5.58263 2 2.5 5.08263 2.5 8.88525V39.0938C2.5 42.8964 5.58263 45.979 9.38525 45.979H55.5282C59.3308 45.979 62.4134 42.8964 62.4134 39.0938V8.88525C62.4134 5.08263 59.3308 2 55.5282 2Z" stroke="#1899F1" stroke-width="4" stroke-linecap="round" stroke-linejoin="round"/>
</svg>
