<svg width="65" height="56" viewBox="0 0 65 56" fill="none" xmlns="http://www.w3.org/2000/svg">
<path d="M46.9131 7.20325L46.4099 10.9246H13.4435L14.5419 2.82439C14.5581 2.70049 14.5988 2.58102 14.6614 2.47288C14.724 2.36473 14.8074 2.27004 14.9067 2.19424C15.0061 2.11845 15.1194 2.06305 15.2403 2.03123C15.3611 1.99942 15.4871 1.99181 15.6109 2.00886L46.1013 6.13792C46.3501 6.1717 46.5754 6.30287 46.7276 6.50261C46.8799 6.70236 46.9466 6.95435 46.9131 7.20325Z" stroke="#1899F1" stroke-width="4" stroke-linecap="round" stroke-linejoin="round"/>
<path d="M60.6632 39.1925H44.3821C43.1642 39.1925 41.9963 38.7087 41.1351 37.8476C40.274 36.9864 39.7902 35.8184 39.7902 34.6006V30.4862C39.7902 29.2683 40.274 28.1004 41.1351 27.2392C41.9963 26.3781 43.1642 25.8943 44.3821 25.8943H60.6632C61.1504 25.8943 61.6176 26.0878 61.962 26.4322C62.3065 26.7767 62.5 27.2439 62.5 27.731V37.3557C62.5 37.8429 62.3065 38.3101 61.962 38.6545C61.6176 38.999 61.1504 39.1925 60.6632 39.1925V39.1925Z" stroke="#1899F1" stroke-width="4" stroke-linecap="round" stroke-linejoin="round"/>
<path d="M43.8495 32.5397C43.8495 32.1037 43.9788 31.6776 44.221 31.3151C44.4631 30.9526 44.8074 30.6701 45.2101 30.5033C45.6129 30.3365 46.0561 30.2928 46.4836 30.3779C46.9112 30.4629 47.3039 30.6728 47.6122 30.9811C47.9204 31.2894 48.1303 31.6821 48.2154 32.1096C48.3004 32.5372 48.2568 32.9804 48.09 33.3831C47.9231 33.7859 47.6406 34.1301 47.2782 34.3723C46.9157 34.6145 46.4895 34.7438 46.0536 34.7438C45.469 34.7438 44.9084 34.5116 44.4951 34.0982C44.0817 33.6849 43.8495 33.1242 43.8495 32.5397Z" fill="#1899F1"/>
<path d="M58.4297 25.9273V17.3533C58.4297 16.509 58.2634 15.6731 57.9404 14.8931C57.6173 14.1132 57.1437 13.4045 56.5468 12.8075C55.9498 12.2105 55.2411 11.737 54.4612 11.4139C53.6812 11.0909 52.8452 10.9246 52.001 10.9246H8.9287C7.2237 10.9246 5.58854 11.6019 4.38292 12.8075C3.17731 14.0131 2.5 15.6483 2.5 17.3533V47.4176C2.5 49.1226 3.17731 50.7577 4.38292 51.9633C5.58854 53.169 7.2237 53.8463 8.9287 53.8463H52.012C52.8563 53.8463 53.6922 53.68 54.4722 53.3569C55.2522 53.0338 55.9608 52.5603 56.5578 51.9633C57.1548 51.3664 57.6283 50.6577 57.9514 49.8777C58.2744 49.0978 58.4407 48.2618 58.4407 47.4176V39.1668" stroke="#1899F1" stroke-width="4" stroke-linecap="round" stroke-linejoin="round"/>
</svg>
