<svg width="65" height="59" viewBox="0 0 65 59" fill="none" xmlns="http://www.w3.org/2000/svg">
<path d="M52.6118 27.6471V24.9964C52.6514 21.9908 52.0935 19.0073 50.9707 16.219C49.8478 13.4308 48.1824 10.8933 46.071 8.75394C43.9595 6.61455 41.4442 4.91586 38.671 3.75645C35.8977 2.59703 32.9218 2 29.916 2C26.9101 2 23.9342 2.59703 21.161 3.75645C18.3877 4.91586 15.8724 6.61455 13.761 8.75394C11.6495 10.8933 9.98408 13.4308 8.86124 16.219C7.73841 19.0073 7.18057 21.9908 7.2201 24.9964V27.6471" stroke="#1899F1" stroke-width="4" stroke-linecap="round" stroke-linejoin="round"/>
<path d="M57.3283 36.0272H60.3717C60.9355 36.0272 61.4762 36.2509 61.8753 36.6492C62.2743 37.0475 62.499 37.5878 62.5001 38.1516V40.6413C62.5001 42.3158 62.1703 43.9739 61.5295 45.5209C60.8887 47.0679 59.9495 48.4735 58.7654 49.6575C57.5814 50.8416 56.1758 51.7808 54.6288 52.4216C53.0818 53.0624 51.4237 53.3922 49.7492 53.3922H45.0565" stroke="#1899F1" stroke-width="4" stroke-miterlimit="10"/>
<path d="M9.973 44.3053H6.28952C5.28411 44.3042 4.32024 43.9041 3.60968 43.1928C2.89913 42.4815 2.5 41.5172 2.5 40.5118V34.0048C2.5 32.3457 3.15907 30.7546 4.33224 29.5814C5.5054 28.4083 7.09655 27.7492 8.75565 27.7492H9.47428C10.1273 27.7492 10.7536 28.0086 11.2153 28.4704C11.6771 28.9321 11.9365 29.5584 11.9365 30.2114V42.3418C11.9365 42.8625 11.7296 43.3619 11.3614 43.7302C10.9932 44.0984 10.4937 44.3053 9.973 44.3053V44.3053Z" stroke="#1899F1" stroke-width="4" stroke-miterlimit="10"/>
<path d="M49.8552 44.3053H53.5387C54.5441 44.3042 55.508 43.9041 56.2185 43.1928C56.9291 42.4815 57.3282 41.5172 57.3282 40.5118V34.0048C57.3282 32.3457 56.6691 30.7546 55.496 29.5814C54.3228 28.4083 52.7317 27.7492 51.0726 27.7492H50.3579C49.7045 27.7492 49.0778 28.0085 48.6154 28.4701C48.153 28.9318 47.8928 29.558 47.8917 30.2114V42.3418C47.8917 42.8625 48.0986 43.3619 48.4668 43.7302C48.835 44.0984 49.3345 44.3053 49.8552 44.3053V44.3053Z" stroke="#1899F1" stroke-width="4" stroke-miterlimit="10"/>
<path d="M43.093 50.2035H35.0663C33.9819 50.2035 33.1028 51.0826 33.1028 52.167V54.6135C33.1028 55.6979 33.9819 56.577 35.0663 56.577H43.093C44.1774 56.577 45.0564 55.6979 45.0564 54.6135V52.167C45.0564 51.0826 44.1774 50.2035 43.093 50.2035Z" stroke="#1899F1" stroke-width="4" stroke-miterlimit="10"/>
</svg>
