<svg width="65" height="64" viewBox="0 0 65 64" fill="none" xmlns="http://www.w3.org/2000/svg">
<path d="M46.3202 22.0876C42.8856 19.2455 37.7338 19.7564 34.5911 22.9119L32.5304 24.9769C32.5216 24.9851 32.5101 24.9896 32.4982 24.9896C32.4862 24.9896 32.4747 24.9851 32.466 24.9769L30.4095 22.9119C27.254 19.7564 22.1236 19.2455 18.6805 22.0876C17.7579 22.8449 17.0041 23.7869 16.4674 24.853C15.9308 25.9191 15.6233 27.0857 15.5646 28.2779C15.506 29.47 15.6976 30.6612 16.127 31.7748C16.5564 32.8885 17.2141 33.8999 18.0579 34.744L20.4149 37.101L30.1691 46.8681C30.7865 47.4847 31.6234 47.831 32.496 47.831C33.3686 47.831 34.2055 47.4847 34.823 46.8681L44.5772 37.101L46.9298 34.744C47.775 33.9011 48.4342 32.8904 48.8651 31.7772C49.296 30.664 49.4889 29.4729 49.4315 28.2806C49.374 27.0883 49.0675 25.9213 48.5317 24.8546C47.9958 23.788 47.2425 22.8454 46.3202 22.0876V22.0876Z" stroke="#1899F1" stroke-width="4" stroke-linecap="round" stroke-linejoin="round"/>
<path d="M62.1686 32.3314C62.3516 15.9459 49.2169 2.51447 32.8314 2.33144C16.4459 2.1484 3.01445 15.2831 2.83142 31.6686C2.64838 48.0541 15.7831 61.4856 32.1686 61.6686C48.5541 61.8516 61.9855 48.7169 62.1686 32.3314Z" stroke="#1899F1" stroke-width="4" stroke-linecap="round" stroke-linejoin="round"/>
<path d="M53.4769 11.0154L11.515 52.9774" stroke="#1899F1" stroke-width="4" stroke-linecap="round" stroke-linejoin="round"/>
</svg>
