<svg width="64" height="59" viewBox="0 0 64 59" fill="none" xmlns="http://www.w3.org/2000/svg">
<path d="M55.1048 2H8.89519C5.08708 2 2 5.08708 2 8.89519V49.6832C2 53.4913 5.08708 56.5784 8.89519 56.5784H55.1048C58.9129 56.5784 62 53.4913 62 49.6832V8.89519C62 5.08708 58.9129 2 55.1048 2Z" stroke="#1899F1" stroke-width="4" stroke-linecap="round" stroke-linejoin="round"/>
<path d="M10.8376 26.7477C15.4042 29.2851 21.0504 30.1205 26.2474 28.0204C35.1166 24.4467 39.6438 12.2954 53.1584 11.3104" stroke="#1899F1" stroke-width="4" stroke-linecap="round" stroke-linejoin="round"/>
<path d="M10.8376 47.2639H53.1584" stroke="#1899F1" stroke-width="4" stroke-linecap="round" stroke-linejoin="round"/>
<path d="M32 47.2639V31.7517" stroke="#1899F1" stroke-width="4" stroke-linecap="round" stroke-linejoin="round"/>
<path d="M10.8376 34.4664V47.2639" stroke="#1899F1" stroke-width="4" stroke-linecap="round" stroke-linejoin="round"/>
<path d="M53.1584 47.264V19.0292" stroke="#1899F1" stroke-width="4" stroke-linecap="round" stroke-linejoin="round"/>
<path d="M21.4208 35.9796V47.2641" stroke="#1899F1" stroke-width="4" stroke-linecap="round" stroke-linejoin="round"/>
<path d="M42.5792 22.1064V47.2641" stroke="#1899F1" stroke-width="4" stroke-linecap="round" stroke-linejoin="round"/>
</svg>
